<mxfile host="app.diagrams.net" modified="2023-09-11T05:07:30.189Z" agent="Mozilla/5.0 (Windows NT 10.0; Win64; x64) AppleWebKit/537.36 (KHTML, like Gecko) Chrome/117.0.0.0 Safari/537.36" etag="1d2gULAZSlXDzUDP8XQz" version="21.7.4" type="github">
  <diagram name="Page-1" id="e7e014a7-5840-1c2e-5031-d8a46d1fe8dd">
    <mxGraphModel dx="1434" dy="758" grid="1" gridSize="10" guides="1" tooltips="1" connect="1" arrows="1" fold="1" page="1" pageScale="1" pageWidth="1169" pageHeight="826" background="none" math="0" shadow="0">
      <root>
        <mxCell id="0" />
        <mxCell id="1" parent="0" />
        <mxCell id="2" value="KPElog" style="swimlane;whiteSpace=wrap" parent="1" vertex="1">
          <mxGeometry x="40" y="20" width="280" height="700" as="geometry" />
        </mxCell>
        <mxCell id="5" value="" style="ellipse;shape=startState;fillColor=#000000;strokeColor=#ff0000;" parent="2" vertex="1">
          <mxGeometry x="100" y="40" width="30" height="30" as="geometry" />
        </mxCell>
        <mxCell id="6" value="" style="edgeStyle=elbowEdgeStyle;elbow=horizontal;verticalAlign=bottom;endArrow=open;endSize=8;strokeColor=#FF0000;endFill=1;rounded=0" parent="2" source="5" target="7" edge="1">
          <mxGeometry x="100" y="40" as="geometry">
            <mxPoint x="115" y="110" as="targetPoint" />
          </mxGeometry>
        </mxCell>
        <mxCell id="7" value="Send bulk request" style="" parent="2" vertex="1">
          <mxGeometry x="60" y="110" width="110" height="50" as="geometry" />
        </mxCell>
        <mxCell id="7RdcoPS2XtjXvjGQvFRi-84" value="" style="ellipse;html=1;shape=endState;fillColor=#000000;strokeColor=#ff0000;" vertex="1" parent="2">
          <mxGeometry x="100" y="590" width="30" height="30" as="geometry" />
        </mxCell>
        <mxCell id="3" value="TestingsController" style="swimlane;whiteSpace=wrap" parent="1" vertex="1">
          <mxGeometry x="320" y="20" width="280" height="700" as="geometry" />
        </mxCell>
        <mxCell id="7RdcoPS2XtjXvjGQvFRi-45" style="edgeStyle=orthogonalEdgeStyle;rounded=0;orthogonalLoop=1;jettySize=auto;html=1;exitX=0.5;exitY=1;exitDx=0;exitDy=0;endArrow=open;verticalAlign=bottom;strokeColor=#ff0000;endSize=8;" edge="1" parent="3" source="7RdcoPS2XtjXvjGQvFRi-42" target="7RdcoPS2XtjXvjGQvFRi-43">
          <mxGeometry relative="1" as="geometry" />
        </mxCell>
        <mxCell id="7RdcoPS2XtjXvjGQvFRi-42" value="Verify Credentials" style="" vertex="1" parent="3">
          <mxGeometry x="85.5" y="110" width="110" height="50" as="geometry" />
        </mxCell>
        <mxCell id="7RdcoPS2XtjXvjGQvFRi-47" style="edgeStyle=orthogonalEdgeStyle;rounded=0;orthogonalLoop=1;jettySize=auto;html=1;exitX=0.198;exitY=0.7;exitDx=0;exitDy=0;exitPerimeter=0;entryX=0.5;entryY=0;entryDx=0;entryDy=0;endArrow=open;verticalAlign=bottom;strokeColor=#ff0000;endSize=8;" edge="1" parent="3" source="7RdcoPS2XtjXvjGQvFRi-43" target="7RdcoPS2XtjXvjGQvFRi-49">
          <mxGeometry relative="1" as="geometry">
            <mxPoint x="90.5" y="282" as="targetPoint" />
          </mxGeometry>
        </mxCell>
        <mxCell id="7RdcoPS2XtjXvjGQvFRi-48" value="Invalid credential record" style="edgeLabel;html=1;align=center;verticalAlign=middle;resizable=0;points=[];" vertex="1" connectable="0" parent="7RdcoPS2XtjXvjGQvFRi-47">
          <mxGeometry x="-0.2425" relative="1" as="geometry">
            <mxPoint as="offset" />
          </mxGeometry>
        </mxCell>
        <mxCell id="7RdcoPS2XtjXvjGQvFRi-50" style="edgeStyle=orthogonalEdgeStyle;rounded=0;orthogonalLoop=1;jettySize=auto;html=1;exitX=0.75;exitY=0.5;exitDx=0;exitDy=0;exitPerimeter=0;endArrow=open;verticalAlign=bottom;strokeColor=#ff0000;endSize=8;" edge="1" parent="3" source="7RdcoPS2XtjXvjGQvFRi-43">
          <mxGeometry relative="1" as="geometry">
            <mxPoint x="375.5" y="242" as="targetPoint" />
            <Array as="points">
              <mxPoint x="190" y="242" />
            </Array>
          </mxGeometry>
        </mxCell>
        <mxCell id="7RdcoPS2XtjXvjGQvFRi-51" value="Valid credential record" style="edgeLabel;html=1;align=center;verticalAlign=middle;resizable=0;points=[];" vertex="1" connectable="0" parent="7RdcoPS2XtjXvjGQvFRi-50">
          <mxGeometry x="0.0831" y="-4" relative="1" as="geometry">
            <mxPoint y="-4" as="offset" />
          </mxGeometry>
        </mxCell>
        <mxCell id="7RdcoPS2XtjXvjGQvFRi-43" value="" style="shape=line;html=1;strokeWidth=6;strokeColor=#ff0000;" vertex="1" parent="3">
          <mxGeometry x="40" y="202" width="200" height="10" as="geometry" />
        </mxCell>
        <mxCell id="7RdcoPS2XtjXvjGQvFRi-79" style="edgeStyle=orthogonalEdgeStyle;rounded=0;orthogonalLoop=1;jettySize=auto;html=1;exitX=0.5;exitY=1;exitDx=0;exitDy=0;verticalAlign=bottom;endArrow=open;strokeColor=#ff0000;endSize=8;" edge="1" parent="3" source="7RdcoPS2XtjXvjGQvFRi-49">
          <mxGeometry relative="1" as="geometry">
            <mxPoint x="80" y="480" as="targetPoint" />
          </mxGeometry>
        </mxCell>
        <mxCell id="7RdcoPS2XtjXvjGQvFRi-49" value="Save error record" style="" vertex="1" parent="3">
          <mxGeometry x="25.5" y="285" width="110" height="50" as="geometry" />
        </mxCell>
        <mxCell id="7RdcoPS2XtjXvjGQvFRi-80" value="" style="shape=line;html=1;strokeWidth=6;strokeColor=#ff0000;" vertex="1" parent="3">
          <mxGeometry x="20" y="480" width="200" height="10" as="geometry" />
        </mxCell>
        <mxCell id="7RdcoPS2XtjXvjGQvFRi-81" value="" style="edgeStyle=orthogonalEdgeStyle;html=1;verticalAlign=bottom;endArrow=open;endSize=8;strokeColor=#ff0000;rounded=0;entryX=0.5;entryY=0;entryDx=0;entryDy=0;" edge="1" source="7RdcoPS2XtjXvjGQvFRi-80" parent="3" target="7RdcoPS2XtjXvjGQvFRi-82">
          <mxGeometry relative="1" as="geometry">
            <mxPoint x="120" y="560" as="targetPoint" />
          </mxGeometry>
        </mxCell>
        <mxCell id="7RdcoPS2XtjXvjGQvFRi-82" value="Response&#xa;result" style="" vertex="1" parent="3">
          <mxGeometry x="65" y="580" width="110" height="50" as="geometry" />
        </mxCell>
        <mxCell id="4" value="TestingService" style="swimlane;whiteSpace=wrap" parent="1" vertex="1">
          <mxGeometry x="600" y="20" width="280" height="700" as="geometry" />
        </mxCell>
        <mxCell id="7RdcoPS2XtjXvjGQvFRi-55" style="edgeStyle=orthogonalEdgeStyle;rounded=0;orthogonalLoop=1;jettySize=auto;html=1;endArrow=open;verticalAlign=bottom;strokeColor=#ff0000;endSize=8;" edge="1" parent="4" source="7RdcoPS2XtjXvjGQvFRi-52" target="7RdcoPS2XtjXvjGQvFRi-53">
          <mxGeometry relative="1" as="geometry">
            <mxPoint x="135.5" y="302" as="targetPoint" />
          </mxGeometry>
        </mxCell>
        <mxCell id="7RdcoPS2XtjXvjGQvFRi-52" value="Insert or Update&#xa;RawTesting" style="" vertex="1" parent="4">
          <mxGeometry x="95.5" y="222" width="110" height="50" as="geometry" />
        </mxCell>
        <mxCell id="7RdcoPS2XtjXvjGQvFRi-53" value="" style="shape=line;html=1;strokeWidth=6;strokeColor=#ff0000;" vertex="1" parent="4">
          <mxGeometry x="50.5" y="312" width="200" height="10" as="geometry" />
        </mxCell>
        <mxCell id="7RdcoPS2XtjXvjGQvFRi-41" style="edgeStyle=orthogonalEdgeStyle;rounded=0;orthogonalLoop=1;jettySize=auto;html=1;exitX=1;exitY=0.5;exitDx=0;exitDy=0;entryX=0;entryY=0.5;entryDx=0;entryDy=0;fillColor=#f8cecc;strokeColor=#b85450;" edge="1" parent="1" source="7" target="7RdcoPS2XtjXvjGQvFRi-42">
          <mxGeometry relative="1" as="geometry">
            <mxPoint x="405.5" y="155" as="targetPoint" />
          </mxGeometry>
        </mxCell>
        <mxCell id="7RdcoPS2XtjXvjGQvFRi-56" value="DuplicateFilterService" style="swimlane;whiteSpace=wrap" vertex="1" parent="1">
          <mxGeometry x="880" y="20" width="340" height="700" as="geometry" />
        </mxCell>
        <mxCell id="7RdcoPS2XtjXvjGQvFRi-63" value="" style="rhombus;whiteSpace=wrap;html=1;fontColor=#000000;fillColor=#ffffc0;strokeColor=#ff0000;" vertex="1" parent="7RdcoPS2XtjXvjGQvFRi-56">
          <mxGeometry x="40" y="297" width="80" height="40" as="geometry" />
        </mxCell>
        <mxCell id="7RdcoPS2XtjXvjGQvFRi-64" value="Update" style="edgeStyle=orthogonalEdgeStyle;html=1;align=left;verticalAlign=bottom;endArrow=open;endSize=8;strokeColor=#ff0000;rounded=0;entryX=0.5;entryY=0;entryDx=0;entryDy=0;" edge="1" source="7RdcoPS2XtjXvjGQvFRi-63" parent="7RdcoPS2XtjXvjGQvFRi-56" target="7RdcoPS2XtjXvjGQvFRi-70">
          <mxGeometry x="-1" relative="1" as="geometry">
            <mxPoint x="250" y="340" as="targetPoint" />
            <Array as="points">
              <mxPoint x="230" y="317" />
              <mxPoint x="230" y="370" />
            </Array>
          </mxGeometry>
        </mxCell>
        <mxCell id="7RdcoPS2XtjXvjGQvFRi-65" value="Insert" style="edgeStyle=orthogonalEdgeStyle;html=1;align=left;verticalAlign=top;endArrow=open;endSize=8;strokeColor=#ff0000;rounded=0;" edge="1" source="7RdcoPS2XtjXvjGQvFRi-63" parent="7RdcoPS2XtjXvjGQvFRi-56">
          <mxGeometry x="-1" relative="1" as="geometry">
            <mxPoint x="80" y="400" as="targetPoint" />
          </mxGeometry>
        </mxCell>
        <mxCell id="7RdcoPS2XtjXvjGQvFRi-69" style="edgeStyle=orthogonalEdgeStyle;rounded=0;orthogonalLoop=1;jettySize=auto;html=1;exitX=0.5;exitY=1;exitDx=0;exitDy=0;entryX=0.5;entryY=0;entryDx=0;entryDy=0;endArrow=open;verticalAlign=bottom;strokeColor=#ff0000;endSize=8;" edge="1" parent="7RdcoPS2XtjXvjGQvFRi-56" source="7RdcoPS2XtjXvjGQvFRi-67" target="7RdcoPS2XtjXvjGQvFRi-68">
          <mxGeometry relative="1" as="geometry" />
        </mxCell>
        <mxCell id="7RdcoPS2XtjXvjGQvFRi-67" value="Duplicate filtering" style="" vertex="1" parent="7RdcoPS2XtjXvjGQvFRi-56">
          <mxGeometry x="25" y="400" width="110" height="50" as="geometry" />
        </mxCell>
        <mxCell id="7RdcoPS2XtjXvjGQvFRi-68" value="Insert to Histories" style="" vertex="1" parent="7RdcoPS2XtjXvjGQvFRi-56">
          <mxGeometry x="25" y="490" width="110" height="50" as="geometry" />
        </mxCell>
        <mxCell id="7RdcoPS2XtjXvjGQvFRi-76" style="edgeStyle=orthogonalEdgeStyle;rounded=0;orthogonalLoop=1;jettySize=auto;html=1;exitX=0.5;exitY=1;exitDx=0;exitDy=0;entryX=0.5;entryY=0;entryDx=0;entryDy=0;endArrow=open;verticalAlign=bottom;strokeColor=#ff0000;endSize=8;" edge="1" parent="7RdcoPS2XtjXvjGQvFRi-56" source="7RdcoPS2XtjXvjGQvFRi-70" target="7RdcoPS2XtjXvjGQvFRi-72">
          <mxGeometry relative="1" as="geometry" />
        </mxCell>
        <mxCell id="7RdcoPS2XtjXvjGQvFRi-70" value="Check for change in duplicate properties" style="whiteSpace=wrap;" vertex="1" parent="7RdcoPS2XtjXvjGQvFRi-56">
          <mxGeometry x="180" y="370" width="100" height="80" as="geometry" />
        </mxCell>
        <mxCell id="7RdcoPS2XtjXvjGQvFRi-75" style="edgeStyle=orthogonalEdgeStyle;rounded=0;orthogonalLoop=1;jettySize=auto;html=1;exitX=0;exitY=0.5;exitDx=0;exitDy=0;entryX=1;entryY=0.5;entryDx=0;entryDy=0;endArrow=open;verticalAlign=bottom;strokeColor=#ff0000;endSize=8;" edge="1" parent="7RdcoPS2XtjXvjGQvFRi-56" source="7RdcoPS2XtjXvjGQvFRi-72" target="7RdcoPS2XtjXvjGQvFRi-67">
          <mxGeometry relative="1" as="geometry" />
        </mxCell>
        <mxCell id="7RdcoPS2XtjXvjGQvFRi-77" value="yes" style="edgeLabel;html=1;align=center;verticalAlign=middle;resizable=0;points=[];" vertex="1" connectable="0" parent="7RdcoPS2XtjXvjGQvFRi-75">
          <mxGeometry x="-0.3214" y="-1" relative="1" as="geometry">
            <mxPoint x="1" y="1" as="offset" />
          </mxGeometry>
        </mxCell>
        <mxCell id="7RdcoPS2XtjXvjGQvFRi-72" value="has change" style="rhombus;whiteSpace=wrap;html=1;fontColor=#000000;fillColor=#ffffc0;strokeColor=#ff0000;" vertex="1" parent="7RdcoPS2XtjXvjGQvFRi-56">
          <mxGeometry x="190" y="490" width="80" height="40" as="geometry" />
        </mxCell>
        <mxCell id="7RdcoPS2XtjXvjGQvFRi-74" value="no" style="edgeStyle=orthogonalEdgeStyle;html=1;align=left;verticalAlign=top;endArrow=open;endSize=8;strokeColor=#ff0000;rounded=0;entryX=0.5;entryY=0;entryDx=0;entryDy=0;" edge="1" source="7RdcoPS2XtjXvjGQvFRi-72" parent="7RdcoPS2XtjXvjGQvFRi-56" target="7RdcoPS2XtjXvjGQvFRi-78">
          <mxGeometry x="-1" relative="1" as="geometry">
            <mxPoint x="230" y="590" as="targetPoint" />
          </mxGeometry>
        </mxCell>
        <mxCell id="7RdcoPS2XtjXvjGQvFRi-78" value="Update existed history" style="whiteSpace=wrap;" vertex="1" parent="7RdcoPS2XtjXvjGQvFRi-56">
          <mxGeometry x="177.5" y="580" width="105" height="60" as="geometry" />
        </mxCell>
        <mxCell id="7RdcoPS2XtjXvjGQvFRi-66" style="edgeStyle=orthogonalEdgeStyle;rounded=0;orthogonalLoop=1;jettySize=auto;html=1;exitX=0.75;exitY=0.5;exitDx=0;exitDy=0;exitPerimeter=0;entryX=0;entryY=0.5;entryDx=0;entryDy=0;endArrow=open;verticalAlign=bottom;strokeColor=#ff0000;endSize=8;" edge="1" parent="1" source="7RdcoPS2XtjXvjGQvFRi-53" target="7RdcoPS2XtjXvjGQvFRi-63">
          <mxGeometry relative="1" as="geometry" />
        </mxCell>
        <mxCell id="7RdcoPS2XtjXvjGQvFRi-54" value="" style="edgeStyle=orthogonalEdgeStyle;html=1;verticalAlign=bottom;endArrow=open;endSize=8;strokeColor=#ff0000;rounded=0;entryX=0.75;entryY=0.5;entryDx=0;entryDy=0;entryPerimeter=0;" edge="1" source="7RdcoPS2XtjXvjGQvFRi-53" parent="1" target="7RdcoPS2XtjXvjGQvFRi-80">
          <mxGeometry relative="1" as="geometry">
            <mxPoint x="490" y="490" as="targetPoint" />
            <Array as="points">
              <mxPoint x="676" y="412" />
              <mxPoint x="490" y="412" />
            </Array>
          </mxGeometry>
        </mxCell>
        <mxCell id="7RdcoPS2XtjXvjGQvFRi-83" style="edgeStyle=orthogonalEdgeStyle;rounded=0;orthogonalLoop=1;jettySize=auto;html=1;endArrow=open;verticalAlign=bottom;strokeColor=#ff0000;endSize=8;" edge="1" parent="1" source="7RdcoPS2XtjXvjGQvFRi-82" target="7RdcoPS2XtjXvjGQvFRi-84">
          <mxGeometry relative="1" as="geometry">
            <mxPoint x="170" y="625" as="targetPoint" />
          </mxGeometry>
        </mxCell>
      </root>
    </mxGraphModel>
  </diagram>
</mxfile>
